<svg xmlns="http://www.w3.org/2000/svg" xmlns:xlink="http://www.w3.org/1999/xlink" xmlns:svgjs="http://svgjs.com/svgjs" id="SvgjsSvg1035" width="288" height="288"><defs id="SvgjsDefs1036"></defs><g id="SvgjsG1037"><svg xmlns="http://www.w3.org/2000/svg" viewBox="0 0 512 512" width="288" height="288"><path fill-rule="evenodd" d="M458.333 204.379v250.477H499c2.754 0 5 2.246 5 5V495c0 2.754-2.246 5-5 5H13a5.01 5.01 0 0 1-5-5v-35.145c0-2.754 2.246-5 5-5h40.667v-250.48a68.954 68.954 0 0 0 19.467 2.792 68.942 68.942 0 0 0 22.02-3.593c17.119-5.765 30.845-17.837 38.931-33.116 11.574 21.833 34.529 36.709 60.96 36.709a68.942 68.942 0 0 0 22.02-3.593c17.119-5.765 30.845-17.837 38.931-33.116 11.574 21.833 34.529 36.709 60.96 36.709a68.942 68.942 0 0 0 22.02-3.593c17.119-5.765 30.845-17.837 38.931-33.116 11.574 21.833 34.529 36.709 60.96 36.709a69.037 69.037 0 0 0 19.466-2.788zM144.47 130.212 175.625 12H248v118.212H144.47zM159.078 12H88.223c-.84 0-1.385.331-1.773 1.075L25.372 130.212h102.552L159.078 12zm-138.3 134.212c3.856 25.453 25.825 44.956 52.355 44.956 5.754 0 11.46-.92 16.914-2.756 18.946-6.38 32.481-22.824 35.436-42.199H20.778v-.001zm121.911 0c3.856 25.453 25.825 44.956 52.355 44.956 5.754 0 11.46-.92 16.914-2.756 18.946-6.38 32.481-22.824 35.436-42.199H142.689v-.001zm121.911 0c3.856 25.453 25.825 44.956 52.355 44.956 5.754 0 11.46-.92 16.914-2.756 18.946-6.38 32.481-22.824 35.436-42.199H264.6v-.001zm102.93-16L336.376 12H264v118.212h103.53zm18.981 16c3.856 25.453 25.825 44.956 52.355 44.956 5.754 0 11.46-.92 16.914-2.756 18.946-6.38 32.481-22.824 35.436-42.199H386.511v-.001zM352.922 12h70.855c.84 0 1.385.331 1.773 1.075l61.078 117.137H384.076L352.922 12zm-63.573 353.062c-5.508 0-10 4.492-10 10v10.97c0 5.508 4.492 10 10 10h107.565c5.508 0 10-4.492 10-10v-10.97c0-5.508-4.492-10-10-10H289.349zm0-115.767c-5.508 0-10 4.492-10 10v61.111c0 5.508 4.492 10 10 10h107.565c5.508 0 10-4.492 10-10v-61.111c0-5.508-4.492-10-10-10H289.349zm-169.962 0c-5.508 0-10 4.492-10 10v195.56H220.73v-195.56c0-5.508-4.492-10-10-10h-91.343z" clip-rule="evenodd" fill="#ffffff" class="color000 svgShape"></path></svg></g></svg>