<svg xmlns="http://www.w3.org/2000/svg" xmlns:xlink="http://www.w3.org/1999/xlink" xmlns:svgjs="http://svgjs.com/svgjs" id="SvgjsSvg1012" width="288" height="288"><defs id="SvgjsDefs1013"></defs><g id="SvgjsG1014"><svg xmlns="http://www.w3.org/2000/svg" viewBox="0 0 48 48" width="288" height="288"><path d="M36.4,0.5c-1.7,0-3.5,0.4-5,1.2C29,0.9,26.5,0.5,24,0.5c-7.3,0-14,3.3-18.5,9c0,0,0,0,0,0c-3.3,4.2-5,9.2-5,14.5 c0,0,0,0,0,0c0,0,0,0,0,0s0,0,0,0c0,5.3,1.7,10.4,5,14.5c0,0,0,0,0,0c3.1,3.9,7.2,6.7,11.9,8c2.1,0.6,4.3,0.9,6.6,0.9c0,0,0,0,0,0 s0,0,0,0c0,0,0,0,0,0c7.3,0,14-3.3,18.5-9c3.3-4.2,5-9.2,5-14.5c0-2.6-0.4-5.2-1.3-7.6c0.8-2,1.3-3.5,1.3-4.8 C47.5,5.5,42.5,0.5,36.4,0.5z M44.9,19.1c0.3,1.3,0.5,2.6,0.5,3.9h-2.8c0,0,0,0,0-0.1c0.1-0.2,0.2-0.3,0.3-0.5 c0.1-0.2,0.3-0.4,0.4-0.7c0.1-0.1,0.2-0.3,0.3-0.4c0.1-0.3,0.3-0.5,0.4-0.8c0.1-0.1,0.1-0.3,0.2-0.4c0.2-0.3,0.4-0.7,0.6-1 C44.9,19.2,44.9,19.1,44.9,19.1C44.9,19.1,44.9,19.1,44.9,19.1z M17,44.3c-0.2-0.1-0.3-0.1-0.5-0.2c-0.2-0.1-0.4-0.2-0.6-0.2 c-0.2-0.1-0.3-0.1-0.5-0.2c-0.2-0.1-0.4-0.2-0.6-0.3c-0.1-0.1-0.3-0.1-0.4-0.2c-0.2-0.1-0.4-0.2-0.6-0.3c-0.1-0.1-0.3-0.1-0.4-0.2 c-0.2-0.1-0.4-0.2-0.6-0.4c-0.1-0.1-0.3-0.2-0.4-0.2c-0.2-0.1-0.4-0.3-0.6-0.4c-0.1-0.1-0.2-0.2-0.3-0.2c-0.2-0.2-0.4-0.3-0.7-0.5 c-0.1-0.1-0.2-0.1-0.3-0.2c-0.2-0.2-0.5-0.4-0.7-0.6C9.7,40.1,9.7,40,9.6,40C9,39.5,8.5,38.9,8,38.3c1.6-0.7,3.3-1.2,5.1-1.7 c1.1,3.3,2.7,6,4.6,7.9c0,0,0,0,0,0C17.4,44.5,17.2,44.4,17,44.3z M6.6,11.3c0.2,0.1,0.5,0.2,0.7,0.3c0.3,0.1,0.6,0.3,1,0.4 c0.4,0.1,0.7,0.3,1.1,0.4c0.3,0.1,0.7,0.2,1,0.3c0.4,0.1,0.8,0.2,1.1,0.3c0.3,0.1,0.6,0.2,0.9,0.3c-0.8,2.9-1.3,6.2-1.4,9.7H2.5 C2.7,18.7,4.1,14.7,6.6,11.3z M37.6,40.7c-0.2,0.2-0.4,0.3-0.7,0.5c-0.1,0.1-0.2,0.1-0.3,0.2c-0.2,0.2-0.4,0.3-0.6,0.4 c-0.1,0.1-0.2,0.1-0.3,0.2c-0.2,0.1-0.4,0.3-0.6,0.4c-0.1,0.1-0.2,0.1-0.4,0.2c-0.2,0.1-0.4,0.2-0.6,0.3c-0.1,0.1-0.3,0.1-0.4,0.2 c-0.2,0.1-0.4,0.2-0.6,0.3c-0.1,0.1-0.3,0.1-0.4,0.2c-0.2,0.1-0.4,0.2-0.6,0.3c-0.1,0.1-0.3,0.1-0.4,0.2c-0.2,0.1-0.4,0.2-0.6,0.2 c-0.2,0.1-0.3,0.1-0.5,0.1c0,0-0.1,0-0.1,0c1.9-1.9,3.5-4.6,4.6-8c1.8,0.5,3.5,1,5.1,1.7c-0.7,0.8-1.5,1.6-2.3,2.2 C37.7,40.6,37.6,40.6,37.6,40.7z M14.8,13.8c0.4,0.1,0.8,0.2,1.3,0.2c0.3,0.1,0.7,0.1,1,0.2c0.4,0.1,0.9,0.1,1.4,0.2 c0.3,0,0.6,0.1,0.9,0.1c0.5,0.1,1,0.1,1.5,0.1c0.3,0,0.5,0,0.8,0.1c0.4,0,0.9,0,1.4,0V23h-9.9c0.1-3.3,0.6-6.4,1.3-9.2 C14.6,13.8,14.7,13.8,14.8,13.8z M28.1,4.2c-0.1,0.1-0.1,0.1-0.2,0.2c0,0,0,0,0,0.1c-0.1,0.2-0.3,0.3-0.4,0.5c0,0,0,0.1-0.1,0.1 c-0.1,0.1-0.2,0.2-0.2,0.3c-0.1,0.1-0.2,0.3-0.3,0.4c0,0.1-0.1,0.1-0.1,0.2c-0.1,0.1-0.1,0.2-0.2,0.3c-0.1,0.2-0.2,0.3-0.2,0.5 c0,0.1-0.1,0.1-0.1,0.2c0,0.1-0.1,0.2-0.1,0.3c-0.1,0.2-0.1,0.3-0.2,0.5c0,0.1-0.1,0.2-0.1,0.3c0,0.1,0,0.2-0.1,0.2 c-0.1,0.2-0.1,0.4-0.2,0.6c0,0.1-0.1,0.2-0.1,0.3c0,0.1,0,0.1,0,0.2c0,0.2-0.1,0.5-0.1,0.7c0,0.1,0,0.2,0,0.3c0,0,0,0.1,0,0.1 c0,0.4-0.1,0.7-0.1,1.1c0,0.3,0,0.7,0.1,1.1c0,0,0,0,0,0c0,0,0,0,0,0c-0.1,0-0.2,0-0.3,0V2.6C26.1,2.8,27.1,3.3,28.1,4.2 C28.1,4.2,28.1,4.2,28.1,4.2z M27.4,18.2c0.8,1.6,1.8,3.3,2.8,4.8H25v-8.3c0.1,0,0.2,0,0.2,0c0.1,0,0.2,0,0.3,0c0.1,0,0.2,0,0.3,0 c0,0,0,0.1,0,0.1c0,0,0,0.1,0,0.1c0,0.1,0.1,0.2,0.1,0.3c0.1,0.2,0.1,0.3,0.2,0.5c0.1,0.3,0.2,0.6,0.4,0.9c0.1,0.1,0.1,0.3,0.2,0.4 c0.1,0.3,0.3,0.6,0.4,0.9C27.3,17.9,27.3,18,27.4,18.2C27.3,18.1,27.3,18.1,27.4,18.2C27.4,18.1,27.4,18.1,27.4,18.2z M23,25v8.3 c-2.9,0.1-5.8,0.4-8.5,1c-0.8-2.8-1.3-5.9-1.3-9.2H23z M23,35.3v10.1c-3.2-0.6-6.1-4.2-7.9-9.3C17.6,35.6,20.3,35.3,23,35.3z M25,45.4V35.3c2.7,0.1,5.4,0.4,8,0.9C31.1,41.3,28.2,44.8,25,45.4z M25,33.3V25h6.4c1.1,1.7,2.1,3.1,2.9,4.2 c0.1,0.1,0.1,0.2,0.2,0.3c-0.2,1.7-0.6,3.3-1,4.8C30.8,33.6,27.9,33.3,25,33.3z M23,2.6v10.1c-0.4,0-0.8,0-1.2,0 c-0.2,0-0.5,0-0.7,0c-0.5,0-1-0.1-1.5-0.1c-0.3,0-0.6-0.1-0.8-0.1c-0.4-0.1-0.9-0.1-1.3-0.2c-0.3,0-0.6-0.1-0.9-0.1 c-0.4-0.1-0.8-0.1-1.2-0.2c-0.1,0-0.1,0-0.2,0C16.9,6.8,19.8,3.2,23,2.6z M11.1,25c0.1,3.5,0.6,6.8,1.4,9.7c-2,0.5-4,1.2-5.8,2 C4.1,33.3,2.7,29.3,2.5,25H11.1z M41.3,36.7c-1.9-0.8-3.8-1.5-5.8-2c0.3-1,0.5-2,0.7-3l0.2,0.2l0.8-1c0,0,0.1-0.2,0.3-0.3 c0,0,0,0,0,0c0.1-0.1,0.1-0.2,0.2-0.3c0,0,0-0.1,0.1-0.1c0.1-0.1,0.2-0.2,0.3-0.3c0-0.1,0.1-0.1,0.1-0.2c0.1-0.1,0.2-0.3,0.3-0.4 c0.1-0.1,0.1-0.1,0.2-0.2c0.1-0.1,0.2-0.3,0.3-0.4c0.1-0.1,0.1-0.2,0.2-0.3c0.1-0.2,0.2-0.3,0.3-0.5c0.1-0.1,0.2-0.3,0.3-0.4 c0.2-0.2,0.3-0.5,0.5-0.7c0.1-0.2,0.3-0.4,0.4-0.6c0.1-0.1,0.2-0.3,0.3-0.4c0.1-0.2,0.3-0.4,0.4-0.6c0,0,0-0.1,0.1-0.1h4.1 C45.3,29.3,43.9,33.3,41.3,36.7z M45.5,11.6c0,1-0.4,2.5-1.3,4.3c-0.1,0.3-0.3,0.6-0.4,0.9c-2.2,4.5-5.8,9.6-7.4,11.8 C35.2,27,33,24,31.1,20.7c0,0,0,0,0,0c-0.2-0.3-0.4-0.6-0.5-0.9c0-0.1-0.1-0.1-0.1-0.2c-0.1-0.3-0.3-0.5-0.4-0.8 c-0.1-0.1-0.1-0.2-0.2-0.3c-0.1-0.2-0.2-0.4-0.3-0.6c-0.1-0.2-0.2-0.3-0.2-0.5c-0.1-0.2-0.2-0.3-0.2-0.5c-0.1-0.2-0.2-0.4-0.3-0.6 c-0.1-0.1-0.1-0.2-0.2-0.3c-0.1-0.2-0.2-0.5-0.3-0.7c0-0.1-0.1-0.2-0.1-0.3c-0.1-0.2-0.2-0.5-0.3-0.7c-0.1-0.3-0.2-0.6-0.3-0.9 c0,0,0,0,0,0c0,0,0,0,0,0c-0.2-0.7-0.3-1.3-0.3-1.8c0-0.4,0-0.7,0.1-1.1c0-0.1,0-0.2,0.1-0.3c0-0.3,0.1-0.5,0.2-0.7 c0-0.1,0.1-0.3,0.1-0.4c0.1-0.2,0.2-0.5,0.2-0.7C27.9,8.2,28,8.1,28,8c0.1-0.3,0.3-0.6,0.5-0.9c0.1-0.1,0.1-0.2,0.2-0.3 c0.1-0.2,0.2-0.4,0.4-0.5c0.1-0.1,0.2-0.3,0.3-0.4c0.1-0.1,0.2-0.2,0.3-0.4c0.1-0.2,0.3-0.3,0.5-0.5c0.1-0.1,0.2-0.2,0.3-0.2 c0.2-0.1,0.3-0.3,0.5-0.4c0.3-0.2,0.6-0.4,0.9-0.6c0,0,0,0,0,0c1.3-0.8,2.9-1.2,4.4-1.2C41.4,2.5,45.5,6.6,45.5,11.6z M17.7,3.5 c-1.9,1.9-3.5,4.6-4.6,7.9c-0.2-0.1-0.5-0.1-0.7-0.2c-0.4-0.1-0.8-0.2-1.2-0.3c-0.3-0.1-0.6-0.2-0.9-0.3c-0.4-0.1-0.8-0.3-1.1-0.4 C8.9,10.1,8.6,10,8.4,9.9C8.2,9.8,8.1,9.7,8,9.7C10.6,6.7,13.9,4.6,17.7,3.5z" fill="#ffffff" class="color000 svgShape"></path><path d="M36.4,17.7c3.4,0,6.1-2.7,6.1-6.1s-2.7-6.1-6.1-6.1s-6.1,2.7-6.1,6.1S33,17.7,36.4,17.7z M36.4,7.5c2.3,0,4.1,1.8,4.1,4.1 s-1.8,4.1-4.1,4.1s-4.1-1.8-4.1-4.1S34.1,7.5,36.4,7.5z" fill="#ffffff" class="color000 svgShape"></path></svg></g></svg>