<svg xmlns="http://www.w3.org/2000/svg" id="Layer_1" data-name="Layer 1" viewBox="0 0 70 70"><defs><style>.cls-1{fill:#fff;}</style></defs><path class="cls-1" d="M45.57,30.17a2.07,2.07,0,0,1,2.08-2.07h8.5l.07,0h.13l.08,0,.11,0,.08,0,.1,0,.09,0,.1,0,.07,0,.1.06.07.05.09.06.07.07,0,0,0,0,.08.08.07.08.06.07.06.09a.22.22,0,0,1,.05.08l.06.09a.36.36,0,0,1,0,.09l.05.09a.69.69,0,0,0,0,.1l0,.09,0,.1a.29.29,0,0,1,0,.09.44.44,0,0,1,0,.1s0,.07,0,.1V30a.45.45,0,0,1,0,.11v8.34a2.08,2.08,0,0,1-4.15,0v-3L40.18,50.26a2.08,2.08,0,0,1-3,.05l-5.4-5.39L16,62a2.08,2.08,0,0,1-3.05-2.82l17.3-18.66a2.13,2.13,0,0,1,1.48-.67,2.09,2.09,0,0,1,1.51.61l2,2,3.4,3.4,12.6-13.6H47.65a2.08,2.08,0,0,1-2.08-2.08Z"></path><path class="cls-1" d="M9.26,63.73V16H7.61V63.73a2.38,2.38,0,1,0,3.06,3.05H64V65.13H10.67a2.38,2.38,0,0,0-1.41-1.4Z"></path><path class="cls-1" d="M41,8.81A1.55,1.55,0,0,0,39.13,10L36.41,21.25H22.84L19,5.77a1.56,1.56,0,0,0-1.52-1.2H13a1.55,1.55,0,0,0-1.55,1.55A1.57,1.57,0,0,0,13,7.67h3.14l3.88,15.49a1.54,1.54,0,0,0,1.52,1.19h16a1.55,1.55,0,0,0,1.52-1.19l3-12.48A1.54,1.54,0,0,0,41,8.81Z"></path><path class="cls-1" d="M26.52,28.85a2.78,2.78,0,1,1-2.78-2.78,2.78,2.78,0,0,1,2.78,2.78"></path><path class="cls-1" d="M37.45,28.85a2.78,2.78,0,1,1-2.78-2.78,2.79,2.79,0,0,1,2.78,2.78"></path><path class="cls-1" d="M28.37,16.92a1.56,1.56,0,0,0,2.19,0l4-4a1.55,1.55,0,0,0-2.2-2.19L31.05,12V3.21a1.56,1.56,0,0,0-3.11,0V12l-1.29-1.29a1.55,1.55,0,1,0-2.2,2.19Z"></path></svg>