<svg xmlns="http://www.w3.org/2000/svg" id="Layer_1" data-name="Layer 1" viewBox="0 0 70 70"><defs><style>.cls-1{fill:#fff;}</style></defs><path class="cls-1" d="M45,57.07H2.28V51a4.22,4.22,0,0,1,1.53-3.29,68.72,68.72,0,0,1,12.53-8,.38.38,0,0,0,.22-.35v-4A9.8,9.8,0,0,1,15.35,32c-.47,0-1.08-.66-1.74-3-.85-3,0-3.6.72-3.59-.41-1.75-1.45-7.84,3.08-10.61h0a2.46,2.46,0,0,1-.88-1.89s5.16.59,7.66.07a5.13,5.13,0,0,1,5.62,3.34s5.06,0,3.1,9.05c.79,0,1.65.51.78,3.59C33,31.3,32.41,32,32,32a9.72,9.72,0,0,1-1.21,3.3v4.06a.38.38,0,0,0,.22.35,69.06,69.06,0,0,1,12.53,8A4.22,4.22,0,0,1,45,51Z"></path><path class="cls-1" d="M66.3,48.5A64.11,64.11,0,0,0,54.72,41a.37.37,0,0,1-.2-.32V37a9.37,9.37,0,0,0,1.12-3.07c.43,0,1-.66,1.6-2.79.8-2.85,0-3.35-.73-3.3,1.83-8.34-2.87-8.37-2.87-8.37a4.71,4.71,0,0,0-5.19-3.08c-2.31.47-7.08-.07-7.08-.07h0A2.25,2.25,0,0,0,42.16,18C38,20.52,39,26.15,39.32,27.74c-.71,0-1.45.54-.66,3.29.61,2.16,1.18,2.76,1.6,2.79h0A9.11,9.11,0,0,0,41.39,37v3.76a.36.36,0,0,1-.21.32l-.7.36h0a.27.27,0,0,0-.16.22.29.29,0,0,0,.12.24c1.59,1.07,3.27,2.28,4.91,3.63A7.19,7.19,0,0,1,48,51.08v6H67.72v-5.6a3.94,3.94,0,0,0-1.42-3Z"></path></svg>